<mxfile host="app.diagrams.net" agent="Mozilla/5.0 (Macintosh; Intel Mac OS X 10_15_7) AppleWebKit/537.36 (KHTML, like Gecko) Chrome/141.0.0.0 Safari/537.36" version="28.2.8">
  <diagram name="Page-1" id="zCUX6PE0uSvKzp9nbC4q">
    <mxGraphModel dx="1665" dy="790" grid="1" gridSize="10" guides="1" tooltips="1" connect="1" arrows="1" fold="1" page="1" pageScale="1" pageWidth="850" pageHeight="1100" math="0" shadow="0">
      <root>
        <mxCell id="0" />
        <mxCell id="1" parent="0" />
        <mxCell id="kRk0vT0_KTBYYw1rY49S-1" value="" style="rounded=1;whiteSpace=wrap;html=1;" vertex="1" parent="1">
          <mxGeometry x="170" y="120" width="120" height="60" as="geometry" />
        </mxCell>
        <mxCell id="kRk0vT0_KTBYYw1rY49S-4" value="" style="rounded=1;whiteSpace=wrap;html=1;" vertex="1" parent="1">
          <mxGeometry x="390" y="320" width="120" height="60" as="geometry" />
        </mxCell>
        <mxCell id="kRk0vT0_KTBYYw1rY49S-5" value="" style="rounded=1;whiteSpace=wrap;html=1;" vertex="1" parent="1">
          <mxGeometry x="170" y="320" width="120" height="60" as="geometry" />
        </mxCell>
        <mxCell id="kRk0vT0_KTBYYw1rY49S-6" value="" style="rounded=1;whiteSpace=wrap;html=1;" vertex="1" parent="1">
          <mxGeometry x="170" y="220" width="120" height="60" as="geometry" />
        </mxCell>
        <mxCell id="kRk0vT0_KTBYYw1rY49S-7" value="" style="rounded=1;whiteSpace=wrap;html=1;" vertex="1" parent="1">
          <mxGeometry x="390" y="430" width="120" height="60" as="geometry" />
        </mxCell>
        <mxCell id="kRk0vT0_KTBYYw1rY49S-11" value="Main/Master&amp;nbsp;" style="text;html=1;whiteSpace=wrap;strokeColor=none;fillColor=none;align=center;verticalAlign=middle;rounded=0;" vertex="1" parent="1">
          <mxGeometry x="195" y="135" width="70" height="30" as="geometry" />
        </mxCell>
        <mxCell id="kRk0vT0_KTBYYw1rY49S-12" value="Feature Branch" style="text;html=1;whiteSpace=wrap;strokeColor=none;fillColor=none;align=center;verticalAlign=middle;rounded=0;" vertex="1" parent="1">
          <mxGeometry x="200" y="235" width="60" height="30" as="geometry" />
        </mxCell>
        <mxCell id="kRk0vT0_KTBYYw1rY49S-13" value="Release&lt;br&gt;(V1.0)" style="text;html=1;whiteSpace=wrap;strokeColor=none;fillColor=none;align=center;verticalAlign=middle;rounded=0;" vertex="1" parent="1">
          <mxGeometry x="200" y="335" width="60" height="30" as="geometry" />
        </mxCell>
        <mxCell id="kRk0vT0_KTBYYw1rY49S-14" value="Main/Master" style="text;html=1;whiteSpace=wrap;strokeColor=none;fillColor=none;align=center;verticalAlign=middle;rounded=0;" vertex="1" parent="1">
          <mxGeometry x="420" y="335" width="60" height="30" as="geometry" />
        </mxCell>
        <mxCell id="kRk0vT0_KTBYYw1rY49S-15" value="&amp;nbsp; &amp;nbsp;Deploy&lt;br&gt;(Test,UAT,Live)" style="text;html=1;whiteSpace=wrap;strokeColor=none;fillColor=none;align=center;verticalAlign=middle;rounded=0;" vertex="1" parent="1">
          <mxGeometry x="420" y="445" width="60" height="30" as="geometry" />
        </mxCell>
        <mxCell id="kRk0vT0_KTBYYw1rY49S-16" value="" style="endArrow=classic;html=1;rounded=0;" edge="1" parent="1">
          <mxGeometry width="50" height="50" relative="1" as="geometry">
            <mxPoint x="229.5" y="180" as="sourcePoint" />
            <mxPoint x="229.5" y="220" as="targetPoint" />
          </mxGeometry>
        </mxCell>
        <mxCell id="kRk0vT0_KTBYYw1rY49S-17" value="" style="endArrow=classic;html=1;rounded=0;" edge="1" parent="1">
          <mxGeometry width="50" height="50" relative="1" as="geometry">
            <mxPoint x="229.5" y="280" as="sourcePoint" />
            <mxPoint x="229.5" y="320" as="targetPoint" />
          </mxGeometry>
        </mxCell>
        <mxCell id="kRk0vT0_KTBYYw1rY49S-18" value="" style="endArrow=classic;html=1;rounded=0;entryX=0.5;entryY=0;entryDx=0;entryDy=0;" edge="1" parent="1" target="kRk0vT0_KTBYYw1rY49S-7">
          <mxGeometry width="50" height="50" relative="1" as="geometry">
            <mxPoint x="449.5" y="380" as="sourcePoint" />
            <mxPoint x="449.5" y="420" as="targetPoint" />
          </mxGeometry>
        </mxCell>
        <mxCell id="kRk0vT0_KTBYYw1rY49S-19" value="" style="endArrow=classic;html=1;rounded=0;entryX=0;entryY=0.5;entryDx=0;entryDy=0;" edge="1" parent="1" target="kRk0vT0_KTBYYw1rY49S-4">
          <mxGeometry width="50" height="50" relative="1" as="geometry">
            <mxPoint x="290" y="349.5" as="sourcePoint" />
            <mxPoint x="360" y="349.5" as="targetPoint" />
          </mxGeometry>
        </mxCell>
      </root>
    </mxGraphModel>
  </diagram>
</mxfile>
